<svg id="visual" viewBox="0 0 960 540" width="960" height="540" xmlns="http://www.w3.org/2000/svg" xmlns:xlink="http://www.w3.org/1999/xlink" version="1.1"><rect width="960" height="540" fill="#ffffff"></rect><g><g transform="translate(693 353)"><path d="M0 -118.3L102.5 -59.2L102.5 59.2L0 118.3L-102.5 59.2L-102.5 -59.2Z" fill="none" stroke="#000000" stroke-width="1"></path></g><g transform="translate(313 73)"><path d="M0 -66L57.2 -33L57.2 33L0 66L-57.2 33L-57.2 -33Z" fill="none" stroke="#000000" stroke-width="1"></path></g><g transform="translate(430 316)"><path d="M0 -78L67.5 -39L67.5 39L0 78L-67.5 39L-67.5 -39Z" stroke="#000000" fill="none" stroke-width="1"></path></g><g transform="translate(99 462)"><path d="M0 -67L58 -33.5L58 33.5L0 67L-58 33.5L-58 -33.5Z" stroke="#000000" fill="none" stroke-width="1"></path></g><g transform="translate(630 4)"><path d="M0 -62L53.7 -31L53.7 31L0 62L-53.7 31L-53.7 -31Z" stroke="#000000" fill="none" stroke-width="1"></path></g></g></svg>